# Created by Kenney (www.kenney.nl)

mtllib terrain_sideCliff.mtl

g terrain_sideCliff

v 0 0.5 -0.5
v 0 0.5 -0.25
v -1 0.5 -0.5
v -0.5 0.5 -0.375
v -1 0.5 -0.25
v -0.5 -1.278559E-18 0.375
v 0 -1.278559E-18 0.5
v -1 0 0.5
v -0.5 0.5 -0.125
v -1 0.5 0
v 0 0.5 0

vn 0 1 0
vn 0.6666667 0.6666667 0.6666667
vn -0.6666667 0.6666667 0.6666667

vt -1.421085E-14 -19.68504
vt 0 -9.84252
vt 19.68504 -19.68504
vt 9.84252 -14.76378
vt 19.68504 -9.84252
vt 9.84252 14.76378
vt -1.287176E-34 19.68504
vt 19.68504 19.68504
vt -6.602563 20.54131
vt -15.40598 -5.868945
vt -17.60683 20.54131
vt -26.41025 -5.868945
vt -4.440892E-16 14.67236
vt 8.803417 -11.73789
vt -11.00427 14.67236
vt -2.200854 -11.73789
vt 0 0
vt 9.84252 -4.92126
vt 19.68504 -2.842171E-14

usemtl rock

f 3/3/1 2/2/1 1/1/1
f 2/2/1 3/3/1 4/4/1
f 4/4/1 3/3/1 5/5/1
f 8/8/1 7/7/1 6/6/1

usemtl rockDark

f 10/11/2 6/10/2 9/9/2
f 6/10/2 10/11/2 8/12/2
f 9/15/3 7/14/3 11/13/3
f 7/14/3 9/15/3 6/16/3
f 4/4/1 11/17/1 2/2/1
f 11/17/1 4/4/1 9/18/1
f 9/18/1 4/4/1 5/5/1
f 9/18/1 5/5/1 10/19/1

